<?xml version="1.0" encoding="UTF-8"?>
<svg id="Layer_1" data-name="Layer 1" xmlns="http://www.w3.org/2000/svg" width="16" height="16" viewBox="0 0 4.2333 4.2333">
  <path d="M10.419-12.647c1.8898.7559,3.704,1.5874,5.5559,2.4567,4.3087,1.9654,10.6206,4.1575,12.8883,8.5418,3.0992,6.0095-1.3228,15.1182-8.2772,15.6852-4.8378.4157-8.7308-2.2677-12.9639-4.0819L1.9528,21.747l-13.6442-6.3497c-6.6142-3.515-7.4079-11.5654-2.6079-17.0458C-8.7434-8.0359-1.2221-3.765,4.863-.8548c0,0,5.5559-11.7922,5.5559-11.7922ZM14.5009-4.8989l-4.5733,9.7891s1.1339.6803,1.3984.7937c4.1197,2.041,8.8442,4.6489,11.2631-1.0961,2.6079-6.2741-3.9307-7.3323-8.0505-9.4867h-.0378ZM-5.7197.9216c-2.0032.0756-3.5528,1.663-4.3087,3.4394-2.7213,6.3119,3.8929,7.4835,8.0505,9.6379L2.5953,4.2098s-1.1339-.6803-1.3984-.7937C-.5039,2.5468-3.9055.8838-5.7197.9594h0v-.0378Z" stroke="#000" stroke-miterlimit="10" stroke-width="3.7796"/>
</svg>