<?xml version="1.0" encoding="UTF-8"?>
<svg xmlns="http://www.w3.org/2000/svg" version="1.1" xmlns:cc="http://creativecommons.org/ns#" xmlns:dc="http://purl.org/dc/elements/1.1/" xmlns:inkscape="http://www.inkscape.org/namespaces/inkscape" xmlns:rdf="http://www.w3.org/1999/02/22-rdf-syntax-ns#" xmlns:sodipodi="http://sodipodi.sourceforge.net/DTD/sodipodi-0.dtd" xmlns:svg="http://www.w3.org/2000/svg" viewBox="0 0 493 58">
  <!-- Generator: Adobe Illustrator 30.0.0, SVG Export Plug-In . SVG Version: 2.1.1 Build 123)  -->
  <defs>
    <style>
      .st0 {
        fill: #18234b;
      }
    </style>
  </defs>
  <g id="Layer_1" sodipodi:docname="banner.svg">
    <sodipodi:namedview id="namedview16" bordercolor="#666666" borderopacity="1" fit-margin-bottom="10" fit-margin-left="10" fit-margin-right="10" fit-margin-top="10" gridtolerance="10" guidetolerance="10" inkscape:bbox-nodes="true" inkscape:bbox-paths="true" inkscape:current-layer="Layer_1" inkscape:cx="264.97589" inkscape:cy="100.72146" inkscape:document-rotation="0" inkscape:pageopacity="1" inkscape:pageshadow="2" inkscape:snap-bbox="true" inkscape:snap-bbox-edge-midpoints="true" inkscape:snap-bbox-midpoints="true" inkscape:snap-page="true" inkscape:window-height="812" inkscape:window-maximized="1" inkscape:window-width="1440" inkscape:window-x="0" inkscape:window-y="23" inkscape:zoom="1.3964178" objecttolerance="10" pagecolor="#ffffff" showgrid="false" units="px"/>
    <g>
      <path class="st0" d="M444.67,7.98c2.3.92,4.55,1.97,6.8,2.99,5.28,2.41,13.05,5.1,15.82,10.46,3.8,7.36-1.64,18.55-10.13,19.24-5.93.49-10.69-2.78-15.89-5l-6.97,14.47-16.72-7.77c-8.13-4.32-9.11-14.17-3.22-20.92,6.82-7.82,16.02-2.58,23.5.98l6.83-14.46ZM449.64,17.46l-5.61,12.02c.05.23,1.39.82,1.71.98,5.04,2.51,10.85,5.71,13.8-1.34,3.21-7.68-4.83-9-9.9-11.66ZM424.86,24.62c-2.47.1-4.36,2.05-5.28,4.21-3.32,7.75,4.75,9.17,9.88,11.81l5.61-12.02c-.05-.23-1.39-.82-1.71-.98-2.1-1.05-6.26-3.11-8.5-3.02Z"/>
      <path class="st0" d="M435.37,53.21l-18.8-8.73c-4.41-2.34-7.24-6.1-8.07-10.65-.89-4.83.6-9.9,4.08-13.9,7.34-8.4,16.95-4.07,24.15-.6l6.76-14.32,2.03.82c2.05.82,4.06,1.74,6.06,2.66l3.17,1.42c5.27,2.29,11.82,5.14,14.58,10.46,2.21,4.29,1.94,9.95-.73,14.76-2.52,4.55-6.73,7.49-11.27,7.86-5.23.43-9.47-1.62-13.6-3.6-.46-.22-.92-.44-1.38-.66l-6.99,14.49ZM422.94,19.72c-2.56,0-4.83.93-6.86,3.25-2.55,2.93-3.65,6.57-3.02,10.01.58,3.12,2.56,5.73,5.58,7.34l14.54,6.75,6.95-14.4,2.03.86c1.21.52,2.4,1.09,3.59,1.66,3.73,1.79,7.2,3.48,11.21,3.16,2.99-.25,5.83-2.3,7.6-5.49,1.92-3.47,2.18-7.45.67-10.38-2-3.86-7.71-6.35-12.3-8.34-.84-.37-1.66-.72-2.42-1.07l-.83-.38c-1.28-.58-2.56-1.17-3.85-1.73l-6.87,14.56-3.64-1.74c-4.76-2.3-8.83-4.06-12.36-4.06ZM430.53,43.82l-2.14-1.11c-.89-.46-1.87-.87-2.85-1.3-4.38-1.88-11.72-5.02-8.09-13.49,1.43-3.34,4.24-5.49,7.32-5.61h0c2.5-.15,6.34,1.63,9.62,3.26,1.57.74,2.65,1.25,2.94,2.55l.17.77-6.96,14.92ZM424.95,26.94h0c-1.53.06-2.7,1.55-3.24,2.8-1.58,3.69-.21,4.89,5.65,7.4.33.14.65.28.97.42l3.72-7.98c-1.94-.96-5.62-2.66-7.11-2.64ZM454.09,35.72c-3,0-6.09-1.54-8.89-2.94l-.5-.25c-1.56-.74-2.63-1.24-2.93-2.52l-.19-.79,6.98-14.95,2.15,1.13c.91.48,1.92.9,2.93,1.34,4.31,1.84,11.51,4.92,8.02,13.27-1.13,2.69-2.78,4.46-4.9,5.25-.88.33-1.78.47-2.68.47ZM447.04,28.52l.24.12c2.8,1.4,5.99,2.98,7.88,2.28.89-.33,1.62-1.21,2.24-2.69,1.5-3.59.16-4.76-5.57-7.21-.36-.15-.72-.31-1.07-.46l-3.72,7.97Z"/>
    </g>
  </g>
</svg>