<?xml version="1.0" encoding="UTF-8"?>
<svg id="Layer_1" xmlns="http://www.w3.org/2000/svg" version="1.1" viewBox="0 0 16 16">
  <!-- Generator: Adobe Illustrator 30.0.0, SVG Export Plug-In . SVG Version: 2.1.1 Build 123)  -->
  <defs>
    <style>
      .st0, .st1 {
        fill: #fff;
      }

      .st1 {
        isolation: isolate;
        opacity: .3;
      }

      .st2 {
        stroke: #18234b;
        stroke-miterlimit: 10;
      }

      .st2, .st3 {
        fill: #18234b;
      }
    </style>
  </defs>
  <path class="st2" d="M9.1,1.45c.5.2.98.42,1.47.65,1.14.52,2.81,1.1,3.41,2.26.82,1.59-.35,4-2.19,4.15-1.28.11-2.31-.6-3.43-1.08l-1.5,3.12-3.61-1.68c-1.75-.93-1.96-3.06-.69-4.51,1.47-1.69,3.46-.56,5.07.21,0,0,1.47-3.12,1.47-3.12ZM10.18,3.5l-1.21,2.59s.3.18.37.21c1.09.54,2.34,1.23,2.98-.29.69-1.66-1.04-1.94-2.13-2.51h0ZM4.83,5.04c-.53.02-.94.44-1.14.91-.72,1.67,1.03,1.98,2.13,2.55l1.21-2.59s-.3-.18-.37-.21c-.45-.23-1.35-.67-1.83-.65h0Z"/>
  <circle class="st3" cx="12.9" cy="12.95" r="2.87"/>
  <g>
    <path class="st1" d="M12.9,10.89c1.13,0,2.05.92,2.05,2.05s-.92,2.05-2.05,2.05-2.05-.92-2.05-2.05.92-2.05,2.05-2.05ZM12.9,11.72c-.68,0-1.23.55-1.23,1.23s.55,1.23,1.23,1.23,1.23-.55,1.23-1.23-.55-1.23-1.23-1.23Z"/>
    <path class="st0" d="M14.96,12.95c0,1.13-.92,2.05-2.05,2.05v-.82c.68,0,1.23-.55,1.23-1.23,0,0,.82,0,.82,0Z"/>
  </g>
</svg>