<?xml version="1.0" encoding="UTF-8"?>
<svg id="Layer_1" data-name="Layer 1" xmlns="http://www.w3.org/2000/svg" viewBox="0 0 185.2 135.36">
  <defs>
    <style>
      .cls-1 {
        fill: #18234b;
        stroke: #18234b;
        stroke-miterlimit: 10;
      }
    </style>
  </defs>
  <path class="cls-1" d="m108.88.64c7.3,2.93,14.45,6.25,21.6,9.51,16.79,7.66,41.48,16.21,50.29,33.24,12.09,23.39-5.22,58.96-32.21,61.18-18.85,1.55-33.99-8.85-50.53-15.89l-22.17,46.01-53.16-24.71C-3.13,96.25-6.26,64.94,12.47,43.48c21.68-24.86,50.93-8.19,74.7,3.12L108.88.64Zm15.81,30.14l-17.84,38.22c.17.72,4.43,2.6,5.44,3.1,16.03,7.98,34.5,18.15,43.88-4.26,10.22-24.42-15.36-28.61-31.47-37.06Zm-78.79,22.79c-7.85.31-13.86,6.52-16.79,13.37-10.55,24.63,15.11,29.14,31.4,37.56l17.84-38.22c-.17-.72-4.43-2.6-5.44-3.1-6.67-3.33-19.89-9.89-27.01-9.61Z"/>
</svg>