<?xml version="1.0" encoding="UTF-8"?>
<svg id="Layer_1" data-name="Layer 1" xmlns="http://www.w3.org/2000/svg" width="16" height="16" viewBox="0 0 4.2333 4.2333">
  <path d="M8.0791-20.1379c1.8898.7559,3.704,1.5874,5.5559,2.4567,4.3087,1.9654,10.6206,4.1575,12.8883,8.5418,3.0992,6.0095-1.3228,15.1182-8.2772,15.6852-4.8378.4157-8.7308-2.2677-12.9639-4.0819L-.3871,14.2561l-13.6442-6.3497c-6.6142-3.515-7.4079-11.5654-2.6079-17.0458,5.5559-6.3875,13.0773-2.1166,19.1624.7937,0,0,5.5559-11.7922,5.5559-11.7922ZM12.161-12.3898L7.5877-2.6007s1.1339.6803,1.3984.7937C13.1059.2339,17.8303,2.8418,20.2492-2.9031c2.6079-6.2741-3.9307-7.3323-8.0505-9.4867h-.0378ZM-8.0596-6.5693c-2.0032.0756-3.5528,1.663-4.3087,3.4394-2.7213,6.3119,3.8929,7.4835,8.0505,9.6379L.2554-3.2811s-1.1339-.6803-1.3984-.7937c-1.7008-.8693-5.1024-2.5323-6.9166-2.4567v-.0378Z" fill="gray" stroke="gray" stroke-miterlimit="10"/>
  <circle cx="22.9705" cy="23.705" r="10.9229" fill="gray"/>
</svg>


