<?xml version="1.0" encoding="UTF-8"?>
<svg id="Layer_1" xmlns="http://www.w3.org/2000/svg" version="1.1" viewBox="0 0 69.94 49.65">
  <!-- Generator: Adobe Illustrator 30.0.0, SVG Export Plug-In . SVG Version: 2.1.1 Build 123)  -->
  <defs>
    <style>
      .st0 {
        font-family: Montserrat-Regular, Montserrat;
        font-size: 6px;
      }

      .st0, .st1, .st2 {
        fill: #18234b;
      }

      .st1 {
        font-family: Montserrat-Bold, Montserrat;
        font-size: 11.9px;
        font-weight: 700;
      }
    </style>
  </defs>
  <g>
    <path class="st2" d="M-178.26-158.79V216.21h-375V-158.79H-178.26ZM-344.27-59.73L-372.94.93c-31.37-14.93-69.98-36.93-98.6-4.12-24.71,28.33-20.59,69.65,13.51,87.78l70.17,32.61,29.26-60.73c21.83,9.29,41.82,23.01,66.69,20.97,35.63-2.93,58.48-49.88,42.52-80.75-11.62-22.48-44.21-33.76-66.38-43.87-9.44-4.31-18.88-8.69-28.52-12.56Z"/>
    <path class="st2" d="M-177.76,216.71h-376V-159.29H-177.76V216.71ZM-552.76,215.71H-178.76V-158.29h-374V215.71ZM-387.62,117.87l-70.62-32.82c-15.52-8.25-25.7-21.74-28.69-37.98-3.23-17.5,2.25-35.94,15.02-50.58,12.02-13.78,26.83-19.21,45.28-16.58,16.03,2.28,32.77,10.37,47.53,17.51,2,.97,3.97,1.92,5.92,2.85l28.65-60.64.44.18c8.62,3.46,17.21,7.39,25.52,11.19l3.02,1.38c3.14,1.44,6.47,2.88,9.98,4.41,20.75,9.02,46.58,20.25,56.63,39.69,7.9,15.29,6.78,35.68-2.93,53.21-9.07,16.38-24.03,26.95-40,28.26-19.37,1.59-36.1-6.46-52.29-14.24-4.62-2.22-9.4-4.52-14.2-6.58l-29.27,60.75ZM-435.38-19.81c-12.74,0-24.94,4.53-35.78,16.95-12.57,14.41-17.96,32.54-14.79,49.74,2.94,15.94,12.94,29.18,28.16,37.27l69.7,32.39,29.26-60.72.44.19c4.97,2.11,9.9,4.49,14.68,6.78,16.81,8.08,32.69,15.71,51.77,14.15,15.64-1.29,30.29-11.66,39.21-27.75,9.55-17.24,10.67-37.27,2.91-52.27-9.89-19.12-35.53-30.27-56.14-39.23-3.52-1.53-6.84-2.98-10-4.41l-3.02-1.38c-8.16-3.73-16.59-7.59-25.04-10.99L-372.7,1.6l-.45-.22c-2.1-1-4.23-2.03-6.38-3.07-18.03-8.72-37.49-18.13-55.85-18.13Z"/>
  </g>
  <g>
    <path class="st2" d="M36.49,11.51c.68.27,1.34.58,2.01.89,1.56.71,3.86,1.51,4.68,3.09,1.13,2.18-.49,5.49-3,5.69-1.75.14-3.16-.82-4.7-1.48l-2.06,4.28-4.95-2.3c-2.4-1.28-2.69-4.19-.95-6.19,2.02-2.31,4.74-.76,6.95.29l2.02-4.28ZM37.96,14.31l-1.66,3.56c.02.07.41.24.51.29,1.49.74,3.21,1.69,4.08-.4.95-2.27-1.43-2.66-2.93-3.45ZM30.63,16.43c-.73.03-1.29.61-1.56,1.24-.98,2.29,1.41,2.71,2.92,3.5l1.66-3.56c-.02-.07-.41-.24-.51-.29-.62-.31-1.85-.92-2.51-.89Z"/>
    <path class="st2" d="M33.74,24.89l-5.56-2.58c-1.3-.69-2.14-1.81-2.39-3.15-.26-1.43.18-2.93,1.21-4.11,2.17-2.49,5.02-1.2,7.14-.18l2-4.24.6.24c.61.24,1.2.51,1.79.79l.94.42c1.56.68,3.5,1.52,4.31,3.09.66,1.27.57,2.94-.22,4.37-.74,1.35-1.99,2.22-3.34,2.33-1.55.13-2.8-.48-4.02-1.06-.14-.07-.27-.13-.41-.2l-2.07,4.29ZM30.06,14.98c-.76,0-1.43.27-2.03.96-.76.87-1.08,1.95-.89,2.96.17.92.76,1.7,1.65,2.17l4.3,2,2.05-4.26.6.26c.36.15.71.32,1.06.49,1.1.53,2.13,1.03,3.32.93.89-.07,1.73-.68,2.25-1.62.57-1.03.65-2.2.2-3.07-.59-1.14-2.28-1.88-3.64-2.47-.25-.11-.49-.21-.72-.32l-.25-.11c-.38-.17-.76-.35-1.14-.51l-2.03,4.31-1.08-.52c-1.41-.68-2.61-1.2-3.66-1.2ZM32.3,22.11l-.63-.33c-.26-.14-.55-.26-.84-.38-1.3-.56-3.47-1.49-2.39-3.99.42-.99,1.25-1.62,2.17-1.66h0c.74-.04,1.88.48,2.85.97.46.22.78.37.87.76l.05.23-2.06,4.42ZM30.65,17.12h0c-.45.02-.8.46-.96.83-.47,1.09-.06,1.45,1.67,2.19.1.04.19.08.29.12l1.1-2.36c-.57-.28-1.66-.79-2.1-.78ZM39.28,19.72c-.89,0-1.8-.46-2.63-.87l-.15-.07c-.46-.22-.78-.37-.87-.74l-.05-.23,2.07-4.42.64.33c.27.14.57.27.87.4,1.27.54,3.41,1.45,2.37,3.92-.33.8-.82,1.32-1.45,1.55-.26.1-.53.14-.79.14ZM37.19,17.58l.07.03c.83.41,1.77.88,2.33.67.26-.1.48-.36.66-.8.44-1.06.05-1.41-1.65-2.13-.11-.05-.21-.09-.32-.14l-1.1,2.36Z"/>
  </g>
  <g>
    <path class="st2" d="M-323.4-19.94c21.25,11.15,55.02,16.68,41.53,48.92-12.37,29.58-36.76,16.16-57.91,5.63-1.33-.66-6.95-3.14-7.17-4.09l23.55-50.45Z"/>
    <path class="st2" d="M-304.65,47.45c-10.54,0-22.46-5.96-33.24-11.34l-2.12-1.06c-.22-.11-.57-.27-.99-.47-4.7-2.22-6.27-3.18-6.45-3.96l-.04-.17,23.85-51.08.46.24c4.01,2.1,8.57,4.05,12.99,5.94,19.61,8.37,39.9,17.03,28.77,43.62-3.75,8.97-8.74,14.51-15.26,16.93-2.54.94-5.21,1.35-7.98,1.35ZM-346.4,30.49c.64.73,4.51,2.56,5.83,3.18.43.2.78.37,1.01.48l2.12,1.06c14.08,7.04,28.64,14.33,40.43,9.95,6.24-2.32,11.04-7.67,14.68-16.38,10.74-25.67-9.08-34.13-28.25-42.31-4.26-1.82-8.67-3.7-12.6-5.73l-23.23,49.75Z"/>
  </g>
  <g>
    <path class="st2" d="M-427.4,10.13c9.4-.37,26.85,8.29,35.65,12.68,1.33.66,6.95,3.14,7.17,4.09l-23.55,50.45c-21.49-11.12-55.37-17.07-41.44-49.57,3.88-9.05,11.81-17.24,22.17-17.65Z"/>
    <path class="st2" d="M-407.89,78.04l-.46-.24c-3.9-2.02-8.31-3.91-12.57-5.73-20-8.57-40.68-17.43-29.1-44.48,3.59-8.39,11.42-17.51,22.61-17.95h0c9.6-.36,27.36,8.48,35.89,12.73.22.11.57.28,1,.48,4.7,2.21,6.26,3.17,6.44,3.95l.04.17-.07.16-23.77,50.92ZM-427.38,10.63c-10.72.42-18.25,9.24-21.73,17.35-11.19,26.13,9.02,34.79,28.57,43.17,4.11,1.76,8.36,3.58,12.18,5.53l23.23-49.76c-.64-.73-4.51-2.55-5.82-3.17-.43-.2-.79-.37-1.02-.49-8.46-4.22-26.06-13-35.41-12.63h0Z"/>
  </g>
  <text class="st1" transform="translate(7.79 34.65)"><tspan x="0" y="0">PRIVATA</tspan></text>
  <text class="st0" transform="translate(8.73 40.06)"><tspan x="0" y="0">Your data. Private.</tspan></text>
</svg>